<?xml version="1.0" encoding="UTF-8"?>
<!DOCTYPE svg PUBLIC "-//W3C//DTD SVG 1.1//EN" "http://www.w3.org/Graphics/SVG/1.1/DTD/svg11.dtd">
<svg xmlns="http://www.w3.org/2000/svg" version="1.1" width="500px" height="500px" style="shape-rendering:geometricPrecision; text-rendering:geometricPrecision; image-rendering:optimizeQuality; fill-rule:evenodd; clip-rule:evenodd" xmlns:xlink="http://www.w3.org/1999/xlink">
<g><path style="opacity:0.999" fill="#363636" d="M 249.5,-0.5 C 253.167,-0.5 256.833,-0.5 260.5,-0.5C 267.591,3.4052 274.591,7.57187 281.5,12C 289.464,13.0976 297.464,13.5976 305.5,13.5C 305.5,22.8333 305.5,32.1667 305.5,41.5C 297.16,41.6664 288.827,41.4997 280.5,41C 274.613,38.7747 268.947,36.108 263.5,33C 258.898,31.8776 254.232,31.3776 249.5,31.5C 249.5,20.8333 249.5,10.1667 249.5,-0.5 Z"/></g>
<g><path style="opacity:0.998" fill="#373737" d="M 320.5,82.5 C 320.427,84.0269 321.094,85.0269 322.5,85.5C 333.18,99.2229 339.18,114.89 340.5,132.5C 347.109,133.258 349.276,136.925 347,143.5C 345.491,145.919 343.325,146.919 340.5,146.5C 340.5,158.167 340.5,169.833 340.5,181.5C 335.833,181.5 331.167,181.5 326.5,181.5C 326.5,169.833 326.5,158.167 326.5,146.5C 321.833,146.5 317.167,146.5 312.5,146.5C 312.5,158.167 312.5,169.833 312.5,181.5C 307.833,181.5 303.167,181.5 298.5,181.5C 298.5,169.833 298.5,158.167 298.5,146.5C 293.833,146.5 289.167,146.5 284.5,146.5C 284.5,158.167 284.5,169.833 284.5,181.5C 279.833,181.5 275.167,181.5 270.5,181.5C 270.5,169.833 270.5,158.167 270.5,146.5C 265.833,146.5 261.167,146.5 256.5,146.5C 256.5,158.167 256.5,169.833 256.5,181.5C 251.833,181.5 247.167,181.5 242.5,181.5C 242.5,169.833 242.5,158.167 242.5,146.5C 237.833,146.5 233.167,146.5 228.5,146.5C 228.5,158.167 228.5,169.833 228.5,181.5C 223.833,181.5 219.167,181.5 214.5,181.5C 214.5,169.833 214.5,158.167 214.5,146.5C 209.833,146.5 205.167,146.5 200.5,146.5C 200.5,158.167 200.5,169.833 200.5,181.5C 195.833,181.5 191.167,181.5 186.5,181.5C 186.5,169.833 186.5,158.167 186.5,146.5C 181.833,146.5 177.167,146.5 172.5,146.5C 172.5,158.167 172.5,169.833 172.5,181.5C 167.833,181.5 163.167,181.5 158.5,181.5C 158.5,169.833 158.5,158.167 158.5,146.5C 153.373,147.042 150.706,144.709 150.5,139.5C 150.706,134.291 153.373,131.958 158.5,132.5C 164.692,86.1415 190.692,58.3082 236.5,49C 270.812,45.0094 298.812,56.1761 320.5,82.5 Z M 248.5,62.5 C 281.849,64.2431 305.349,80.2431 319,110.5C 321.778,117.611 323.611,124.945 324.5,132.5C 274.5,132.5 224.5,132.5 174.5,132.5C 178.49,102.004 194.49,80.5042 222.5,68C 231.078,65.0526 239.745,63.2193 248.5,62.5 Z"/></g>
<g><path style="opacity:0.478" fill="#b0b0b0" d="M 320.5,82.5 C 321.906,82.9731 322.573,83.9731 322.5,85.5C 321.094,85.0269 320.427,84.0269 320.5,82.5 Z"/></g>
<g><path style="opacity:0.995" fill="#333333" d="M 424.5,311.5 C 421.455,311.492 418.455,311.159 415.5,310.5C 413.833,309.833 412.167,309.167 410.5,308.5C 410.5,273.167 410.5,237.833 410.5,202.5C 303.167,202.5 195.833,202.5 88.5,202.5C 87.8399,238.182 88.5066,273.516 90.5,308.5C 85.3827,309.989 80.0494,310.989 74.5,311.5C 74.5,270.5 74.5,229.5 74.5,188.5C 191.167,188.5 307.833,188.5 424.5,188.5C 424.5,229.5 424.5,270.5 424.5,311.5 Z"/></g>
<g><path style="opacity:0.998" fill="#333333" d="M 109.5,223.5 C 118.833,223.5 128.167,223.5 137.5,223.5C 137.5,230.5 137.5,237.5 137.5,244.5C 128.167,244.5 118.833,244.5 109.5,244.5C 109.5,237.5 109.5,230.5 109.5,223.5 Z"/></g>
<g><path style="opacity:0.998" fill="#333333" d="M 158.5,223.5 C 167.833,223.5 177.167,223.5 186.5,223.5C 186.5,230.5 186.5,237.5 186.5,244.5C 177.167,244.5 167.833,244.5 158.5,244.5C 158.5,237.5 158.5,230.5 158.5,223.5 Z"/></g>
<g><path style="opacity:0.997" fill="#333333" d="M 207.5,223.5 C 216.833,223.5 226.167,223.5 235.5,223.5C 235.5,230.5 235.5,237.5 235.5,244.5C 226.167,244.5 216.833,244.5 207.5,244.5C 207.5,237.5 207.5,230.5 207.5,223.5 Z"/></g>
<g><path style="opacity:0.998" fill="#333333" d="M 256.5,223.5 C 265.833,223.5 275.167,223.5 284.5,223.5C 284.5,230.5 284.5,237.5 284.5,244.5C 275.167,244.5 265.833,244.5 256.5,244.5C 256.5,237.5 256.5,230.5 256.5,223.5 Z"/></g>
<g><path style="opacity:0.998" fill="#333333" d="M 305.5,223.5 C 314.833,223.5 324.167,223.5 333.5,223.5C 333.5,230.5 333.5,237.5 333.5,244.5C 324.167,244.5 314.833,244.5 305.5,244.5C 305.5,237.5 305.5,230.5 305.5,223.5 Z"/></g>
<g><path style="opacity:0.998" fill="#333333" d="M 354.5,223.5 C 363.833,223.5 373.167,223.5 382.5,223.5C 382.5,230.5 382.5,237.5 382.5,244.5C 373.167,244.5 363.833,244.5 354.5,244.5C 354.5,237.5 354.5,230.5 354.5,223.5 Z"/></g>
<g><path style="opacity:0.998" fill="#333333" d="M 109.5,258.5 C 118.833,258.5 128.167,258.5 137.5,258.5C 137.5,265.5 137.5,272.5 137.5,279.5C 128.167,279.5 118.833,279.5 109.5,279.5C 109.5,272.5 109.5,265.5 109.5,258.5 Z"/></g>
<g><path style="opacity:0.999" fill="#333333" d="M 158.5,258.5 C 167.833,258.5 177.167,258.5 186.5,258.5C 186.5,265.5 186.5,272.5 186.5,279.5C 177.167,279.5 167.833,279.5 158.5,279.5C 158.5,272.5 158.5,265.5 158.5,258.5 Z"/></g>
<g><path style="opacity:0.998" fill="#333333" d="M 207.5,258.5 C 216.833,258.5 226.167,258.5 235.5,258.5C 235.5,265.5 235.5,272.5 235.5,279.5C 226.167,279.5 216.833,279.5 207.5,279.5C 207.5,272.5 207.5,265.5 207.5,258.5 Z"/></g>
<g><path style="opacity:0.998" fill="#333333" d="M 256.5,258.5 C 265.833,258.5 275.167,258.5 284.5,258.5C 284.5,265.5 284.5,272.5 284.5,279.5C 275.167,279.5 265.833,279.5 256.5,279.5C 256.5,272.5 256.5,265.5 256.5,258.5 Z"/></g>
<g><path style="opacity:0.999" fill="#333333" d="M 305.5,258.5 C 314.833,258.5 324.167,258.5 333.5,258.5C 333.5,265.5 333.5,272.5 333.5,279.5C 324.167,279.5 314.833,279.5 305.5,279.5C 305.5,272.5 305.5,265.5 305.5,258.5 Z"/></g>
<g><path style="opacity:0.997" fill="#333333" d="M 354.5,258.5 C 363.833,258.5 373.167,258.5 382.5,258.5C 382.5,265.5 382.5,272.5 382.5,279.5C 373.167,279.5 363.833,279.5 354.5,279.5C 354.5,272.5 354.5,265.5 354.5,258.5 Z"/></g>
<g><path style="opacity:0.996" fill="#323232" d="M 137.5,308.5 C 128.224,306.778 118.89,305.445 109.5,304.5C 109.5,300.833 109.5,297.167 109.5,293.5C 118.833,293.5 128.167,293.5 137.5,293.5C 137.5,298.5 137.5,303.5 137.5,308.5 Z"/></g>
<g><path style="opacity:0.997" fill="#333333" d="M 169.5,315.5 C 164.651,314.784 159.985,313.784 155.5,312.5C 156.5,312.5 157.5,312.5 158.5,312.5C 158.5,306.167 158.5,299.833 158.5,293.5C 167.833,293.5 177.167,293.5 186.5,293.5C 186.5,300.5 186.5,307.5 186.5,314.5C 180.642,314.178 174.975,314.511 169.5,315.5 Z"/></g>
<g><path style="opacity:0.997" fill="#353232" d="M 235.5,306.5 C 231.159,306.658 227.159,307.658 223.5,309.5C 222.167,309.5 220.833,309.5 219.5,309.5C 215.626,310.761 211.626,311.428 207.5,311.5C 207.5,305.5 207.5,299.5 207.5,293.5C 216.833,293.5 226.167,293.5 235.5,293.5C 235.5,297.833 235.5,302.167 235.5,306.5 Z"/></g>
<g><path style="opacity:0.996" fill="#353232" d="M 284.5,310.5 C 279.725,310.353 275.392,309.353 271.5,307.5C 267.433,305.946 263.1,305.28 258.5,305.5C 257.833,305.5 257.167,305.5 256.5,305.5C 256.5,301.5 256.5,297.5 256.5,293.5C 265.833,293.5 275.167,293.5 284.5,293.5C 284.5,299.167 284.5,304.833 284.5,310.5 Z"/></g>
<g><path style="opacity:0.998" fill="#333232" d="M 333.5,313.5 C 331.735,314.461 329.735,314.795 327.5,314.5C 320.5,314.5 313.5,314.5 306.5,314.5C 306.167,314.5 305.833,314.5 305.5,314.5C 305.5,307.5 305.5,300.5 305.5,293.5C 314.833,293.5 324.167,293.5 333.5,293.5C 333.5,300.167 333.5,306.833 333.5,313.5 Z"/></g>
<g><path style="opacity:0.995" fill="#333333" d="M 382.5,303.5 C 380.028,303.942 377.528,304.275 375,304.5C 372.747,302.866 369.58,302.366 365.5,303C 364.167,304 364.167,305 365.5,306C 363.432,306.687 361.432,306.52 359.5,305.5C 357.853,306.133 356.187,307.133 354.5,308.5C 354.5,303.5 354.5,298.5 354.5,293.5C 363.833,293.5 373.167,293.5 382.5,293.5C 382.5,296.833 382.5,300.167 382.5,303.5 Z"/></g>
<g><path style="opacity:1" fill="#3c3622" d="M 382.5,303.5 C 382.5,304.167 382.5,304.833 382.5,305.5C 378.511,305.116 374.845,305.783 371.5,307.5C 370.5,307.5 369.5,307.5 368.5,307.5C 363.853,308.296 359.186,308.963 354.5,309.5C 354.5,309.167 354.5,308.833 354.5,308.5C 356.187,307.133 357.853,306.133 359.5,305.5C 361.432,306.52 363.432,306.687 365.5,306C 364.167,305 364.167,304 365.5,303C 369.58,302.366 372.747,302.866 375,304.5C 377.528,304.275 380.028,303.942 382.5,303.5 Z"/></g>
<g><path style="opacity:1" fill="#090909" d="M 109.5,304.5 C 118.89,305.445 128.224,306.778 137.5,308.5C 143.55,309.71 149.55,311.043 155.5,312.5C 159.985,313.784 164.651,314.784 169.5,315.5C 176.21,316.454 178.377,320.121 176,326.5C 175.097,327.701 173.931,328.535 172.5,329C 165.514,330.564 158.514,332.064 151.5,333.5C 150.287,333.747 149.62,334.414 149.5,335.5C 149.5,340.167 149.5,344.833 149.5,349.5C 149.053,367.787 140.053,379.62 122.5,385C 102.461,388.897 87.9611,381.73 79,363.5C 77.4577,358.955 76.6243,354.289 76.5,349.5C 77.1128,343.729 76.4461,338.396 74.5,333.5C 71.5,332.833 68.5,332.167 65.5,331.5C 64.791,330.596 63.791,330.263 62.5,330.5C 62.1765,337.022 62.5098,343.355 63.5,349.5C 65.2238,356.948 66.8905,364.448 68.5,372C 66.8618,376.657 63.5285,378.49 58.5,377.5C 56.5,377.333 54.5,377.167 52.5,377C 51.3333,376.5 50.5,375.667 50,374.5C 50.1789,367.431 51.1789,360.431 53,353.5C 53.4997,345.173 53.6664,336.84 53.5,328.5C 53.0269,327.094 52.0269,326.427 50.5,326.5C 49.0259,323.169 49.3593,320.003 51.5,317C 58.9922,314.468 66.6588,312.635 74.5,311.5C 80.0494,310.989 85.3827,309.989 90.5,308.5C 96.7522,306.916 103.086,305.583 109.5,304.5 Z"/></g>
<g><path style="opacity:1" fill="#df716b" d="M 255.5,305.5 C 251.167,305.5 246.833,305.5 242.5,305.5C 246.833,302.833 251.167,302.833 255.5,305.5 Z"/></g>
<g><path style="opacity:1" fill="#f6e188" d="M 382.5,303.5 C 386.202,303.335 389.869,304.001 393.5,305.5C 389.833,305.5 386.167,305.5 382.5,305.5C 382.5,304.833 382.5,304.167 382.5,303.5 Z"/></g>
<g><path style="opacity:1" fill="#5b271e" d="M 258.5,305.5 C 263.1,305.28 267.433,305.946 271.5,307.5C 266.878,307.844 262.545,307.177 258.5,305.5 Z"/></g>
<g><path style="opacity:1" fill="#efca3b" d="M 382.5,305.5 C 386.167,305.5 389.833,305.5 393.5,305.5C 399.191,306.372 404.858,307.372 410.5,308.5C 412.167,309.167 413.833,309.833 415.5,310.5C 408.074,309.66 400.74,308.493 393.5,307C 386.139,306.317 378.805,306.483 371.5,307.5C 374.845,305.783 378.511,305.116 382.5,305.5 Z"/></g>
<g><path style="opacity:1" fill="#fc0201" d="M 287.5,312.5 C 287.611,313.117 287.944,313.617 288.5,314C 296.215,313.931 303.548,315.431 310.5,318.5C 310.5,321.167 310.5,323.833 310.5,326.5C 308.011,326.241 306.344,327.241 305.5,329.5C 303.621,330.341 301.621,330.675 299.5,330.5C 296.482,330.335 293.482,330.502 290.5,331C 288.347,331.099 286.681,331.933 285.5,333.5C 285.5,334.167 285.5,334.833 285.5,335.5C 285.5,340.167 285.5,344.833 285.5,349.5C 285.5,350.833 285.5,352.167 285.5,353.5C 283.19,357.981 281.19,362.648 279.5,367.5C 278.5,367.5 277.5,367.5 276.5,367.5C 276.5,369.5 276.5,371.5 276.5,373.5C 273.582,377.957 269.582,380.957 264.5,382.5C 255.228,384.607 245.894,384.94 236.5,383.5C 234.71,382.239 233.043,380.739 231.5,379C 230.207,378.51 228.873,378.343 227.5,378.5C 227.167,377.833 226.833,377.167 226.5,376.5C 222.493,370.8 218.826,364.8 215.5,358.5C 214.668,349.852 214.168,341.186 214,332.5C 211.904,331.285 212.071,330.451 214.5,330C 213.383,328.108 211.716,327.275 209.5,327.5C 209.5,328.5 209.5,329.5 209.5,330.5C 205.958,330.187 202.625,330.521 199.5,331.5C 198.222,340.367 198.388,349.367 200,358.5C 200.383,359.056 200.883,359.389 201.5,359.5C 201.5,359.833 201.5,360.167 201.5,360.5C 201.54,365.193 201.873,369.859 202.5,374.5C 197.833,374.5 193.167,374.5 188.5,374.5C 188.578,367.485 188.911,360.485 189.5,353.5C 190.222,353.082 190.722,352.416 191,351.5C 191.667,343.5 191.667,335.5 191,327.5C 188.456,326.79 187.289,325.124 187.5,322.5C 187.719,320.307 188.385,318.307 189.5,316.5C 193.163,316.048 196.83,315.548 200.5,315C 201.056,314.617 201.389,314.117 201.5,313.5C 201.833,313.5 202.167,313.5 202.5,313.5C 206.853,313.235 211.187,312.735 215.5,312C 217.066,311.392 218.4,310.558 219.5,309.5C 220.833,309.5 222.167,309.5 223.5,309.5C 232.28,309.156 240.946,308.156 249.5,306.5C 252.989,306.604 256.156,307.604 259,309.5C 260.062,308.903 261.228,308.57 262.5,308.5C 270.621,310.721 278.954,312.055 287.5,312.5 Z M 199.5,331.5 C 203.203,331.907 206.87,332.574 210.5,333.5C 211.713,333.747 212.38,334.414 212.5,335.5C 208.167,335.5 203.833,335.5 199.5,335.5C 199.5,334.167 199.5,332.833 199.5,331.5 Z"/></g>
<g><path style="opacity:1" fill="#fecc06" d="M 415.5,310.5 C 418.455,311.159 421.455,311.492 424.5,311.5C 424.833,311.5 425.167,311.5 425.5,311.5C 428.123,313.265 431.123,313.932 434.5,313.5C 437.63,313.7 440.63,314.366 443.5,315.5C 443.987,316.473 444.487,317.473 445,318.5C 445.667,317.167 446.333,317.167 447,318.5C 447.43,321.192 447.263,323.859 446.5,326.5C 443.088,327.042 440.088,328.375 437.5,330.5C 433.233,331.698 428.9,332.698 424.5,333.5C 423.833,333.5 423.167,333.5 422.5,333.5C 420.695,340.768 419.861,348.435 420,356.5C 418.151,361.524 416.318,366.524 414.5,371.5C 413.581,374.089 411.914,376.089 409.5,377.5C 406.351,377.211 403.351,377.711 400.5,379C 401.5,379.333 402.5,379.667 403.5,380C 394.928,383.854 385.928,385.354 376.5,384.5C 367.117,382.658 360.117,377.658 355.5,369.5C 351.359,358.096 349.359,346.429 349.5,334.5C 348.005,334.011 346.671,333.345 345.5,332.5C 344.306,331.223 342.64,330.556 340.5,330.5C 338.359,330.613 336.525,331.28 335,332.5C 333.632,343.771 334.632,354.771 338,365.5C 338.498,368.817 338.665,372.15 338.5,375.5C 333.821,375.666 329.155,375.499 324.5,375C 323.549,371.943 323.216,368.777 323.5,365.5C 323.659,361.709 324.325,358.042 325.5,354.5C 326.158,353.602 326.824,352.602 327.5,351.5C 328.833,343.167 328.833,334.833 327.5,326.5C 321.564,321.849 322.231,318.349 329.5,316C 335.112,314.869 340.779,314.369 346.5,314.5C 346.5,313.5 346.5,312.5 346.5,311.5C 347.5,311.5 348.5,311.5 349.5,311.5C 355.659,311.784 361.659,310.951 367.5,309C 368.056,308.617 368.389,308.117 368.5,307.5C 369.5,307.5 370.5,307.5 371.5,307.5C 378.805,306.483 386.139,306.317 393.5,307C 400.74,308.493 408.074,309.66 415.5,310.5 Z M 345.5,332.5 C 346.671,333.345 348.005,334.011 349.5,334.5C 349.5,334.833 349.5,335.167 349.5,335.5C 345.167,335.5 340.833,335.5 336.5,335.5C 336.5,334.167 336.5,332.833 336.5,331.5C 339.482,331.963 342.482,332.296 345.5,332.5 Z"/></g>
<g><path style="opacity:1" fill="#d41913" d="M 242.5,305.5 C 246.833,305.5 251.167,305.5 255.5,305.5C 255.833,305.5 256.167,305.5 256.5,305.5C 257.167,305.5 257.833,305.5 258.5,305.5C 262.545,307.177 266.878,307.844 271.5,307.5C 275.392,309.353 279.725,310.353 284.5,310.5C 285.391,311.11 286.391,311.443 287.5,311.5C 287.5,311.833 287.5,312.167 287.5,312.5C 278.954,312.055 270.621,310.721 262.5,308.5C 261.228,308.57 260.062,308.903 259,309.5C 256.156,307.604 252.989,306.604 249.5,306.5C 240.946,308.156 232.28,309.156 223.5,309.5C 227.159,307.658 231.159,306.658 235.5,306.5C 237.764,305.781 240.097,305.448 242.5,305.5 Z"/></g>
<g><path style="opacity:1" fill="#e1c036" d="M 368.5,307.5 C 368.389,308.117 368.056,308.617 367.5,309C 361.659,310.951 355.659,311.784 349.5,311.5C 350.93,310.463 352.597,309.796 354.5,309.5C 359.186,308.963 363.853,308.296 368.5,307.5 Z"/></g>
<g><path style="opacity:1" fill="#bc3027" d="M 219.5,309.5 C 218.4,310.558 217.066,311.392 215.5,312C 211.187,312.735 206.853,313.235 202.5,313.5C 204.167,312.833 205.833,312.167 207.5,311.5C 211.626,311.428 215.626,310.761 219.5,309.5 Z"/></g>
<g><path style="opacity:0.718" fill="#fbeba8" d="M 425.5,311.5 C 428.689,311.858 431.689,312.525 434.5,313.5C 431.123,313.932 428.123,313.265 425.5,311.5 Z"/></g>
<g><path style="opacity:1" fill="#e54d3f" d="M 287.5,311.5 C 293.455,312.758 299.455,313.758 305.5,314.5C 305.833,314.5 306.167,314.5 306.5,314.5C 314.239,317.956 315.239,322.79 309.5,329C 308.207,329.49 306.873,329.657 305.5,329.5C 306.344,327.241 308.011,326.241 310.5,326.5C 310.5,323.833 310.5,321.167 310.5,318.5C 303.548,315.431 296.215,313.931 288.5,314C 287.944,313.617 287.611,313.117 287.5,312.5C 287.5,312.167 287.5,311.833 287.5,311.5 Z"/></g>
<g><path style="opacity:1" fill="#e34f49" d="M 201.5,313.5 C 201.389,314.117 201.056,314.617 200.5,315C 196.83,315.548 193.163,316.048 189.5,316.5C 193.2,314.755 197.2,313.755 201.5,313.5 Z"/></g>
<g><path style="opacity:1" fill="#f6d95a" d="M 443.5,315.5 C 448.655,316.797 450.488,320.13 449,325.5C 448.5,327.333 447.333,328.5 445.5,329C 442.883,329.822 440.216,330.322 437.5,330.5C 440.088,328.375 443.088,327.042 446.5,326.5C 447.263,323.859 447.43,321.192 447,318.5C 446.333,317.167 445.667,317.167 445,318.5C 444.487,317.473 443.987,316.473 443.5,315.5 Z"/></g>
<g><path style="opacity:0.835" fill="#7f7f7f" d="M 50.5,326.5 C 52.0269,326.427 53.0269,327.094 53.5,328.5C 51.9731,328.573 50.9731,327.906 50.5,326.5 Z"/></g>
<g><path style="opacity:1" fill="#e14e46" d="M 299.5,330.5 C 295.058,331.99 290.391,332.99 285.5,333.5C 286.681,331.933 288.347,331.099 290.5,331C 293.482,330.502 296.482,330.335 299.5,330.5 Z"/></g>
<g><path style="opacity:0.9" fill="#323232" d="M 74.5,333.5 C 76.4461,338.396 77.1128,343.729 76.5,349.5C 74.5539,344.604 73.8872,339.271 74.5,333.5 Z"/></g>
<g><path style="opacity:1" fill="#efcc42" d="M 346.5,311.5 C 346.5,312.5 346.5,313.5 346.5,314.5C 340.779,314.369 335.112,314.869 329.5,316C 322.231,318.349 321.564,321.849 327.5,326.5C 328.833,334.833 328.833,343.167 327.5,351.5C 326.824,352.602 326.158,353.602 325.5,354.5C 325.366,352.708 325.699,351.042 326.5,349.5C 326.5,344.833 326.5,340.167 326.5,335.5C 327.074,331.733 325.907,328.733 323,326.5C 320.851,321.131 322.351,317.131 327.5,314.5C 329.735,314.795 331.735,314.461 333.5,313.5C 337.86,312.993 342.193,312.327 346.5,311.5 Z"/></g>
<g><path style="opacity:0.792" fill="#424242" d="M 65.5,331.5 C 63.5467,337.074 62.88,343.074 63.5,349.5C 62.5098,343.355 62.1765,337.022 62.5,330.5C 63.791,330.263 64.791,330.596 65.5,331.5 Z"/></g>
<g><path style="opacity:0.993" fill="#333233" d="M 149.5,335.5 C 162.833,335.5 176.167,335.5 189.5,335.5C 189.5,340.167 189.5,344.833 189.5,349.5C 176.167,349.5 162.833,349.5 149.5,349.5C 149.5,344.833 149.5,340.167 149.5,335.5 Z"/></g>
<g><path style="opacity:1" fill="#d03c32" d="M 189.5,316.5 C 188.385,318.307 187.719,320.307 187.5,322.5C 187.289,325.124 188.456,326.79 191,327.5C 191.667,335.5 191.667,343.5 191,351.5C 190.722,352.416 190.222,353.082 189.5,353.5C 189.5,352.167 189.5,350.833 189.5,349.5C 189.5,344.833 189.5,340.167 189.5,335.5C 189.808,333.076 189.474,330.743 188.5,328.5C 185.191,325.302 184.691,321.635 187,317.5C 187.671,316.748 188.504,316.414 189.5,316.5 Z"/></g>
<g><path style="opacity:0.992" fill="#3a3131" d="M 199.5,335.5 C 203.833,335.5 208.167,335.5 212.5,335.5C 212.5,340.167 212.5,344.833 212.5,349.5C 208.167,349.5 203.833,349.5 199.5,349.5C 199.5,344.833 199.5,340.167 199.5,335.5 Z"/></g>
<g><path style="opacity:0.993" fill="#353231" d="M 285.5,335.5 C 299.167,335.5 312.833,335.5 326.5,335.5C 326.5,340.167 326.5,344.833 326.5,349.5C 312.833,349.5 299.167,349.5 285.5,349.5C 285.5,344.833 285.5,340.167 285.5,335.5 Z"/></g>
<g><path style="opacity:1" fill="#d2322c" d="M 199.5,331.5 C 199.5,332.833 199.5,334.167 199.5,335.5C 199.5,340.167 199.5,344.833 199.5,349.5C 200.546,352.728 201.212,356.061 201.5,359.5C 200.883,359.389 200.383,359.056 200,358.5C 198.388,349.367 198.222,340.367 199.5,331.5 Z"/></g>
<g><path style="opacity:0.996" fill="#3d3315" d="M 422.5,333.5 C 423.167,333.5 423.833,333.5 424.5,333.5C 425.113,339.271 424.446,344.604 422.5,349.5C 422.5,344.167 422.5,338.833 422.5,333.5 Z"/></g>
<g><path style="opacity:1" fill="#f5d34f" d="M 345.5,332.5 C 342.482,332.296 339.482,331.963 336.5,331.5C 336.5,332.833 336.5,334.167 336.5,335.5C 335.167,340.167 335.167,344.833 336.5,349.5C 338.648,358.062 339.814,366.729 340,375.5C 334.604,377.962 329.104,378.129 323.5,376C 321.393,372.493 321.393,368.993 323.5,365.5C 323.216,368.777 323.549,371.943 324.5,375C 329.155,375.499 333.821,375.666 338.5,375.5C 338.665,372.15 338.498,368.817 338,365.5C 334.632,354.771 333.632,343.771 335,332.5C 336.525,331.28 338.359,330.613 340.5,330.5C 342.64,330.556 344.306,331.223 345.5,332.5 Z"/></g>
<g><path style="opacity:1" fill="#36342e" d="M 336.5,335.5 C 340.833,335.5 345.167,335.5 349.5,335.5C 349.5,340.167 349.5,344.833 349.5,349.5C 345.167,349.5 340.833,349.5 336.5,349.5C 335.167,344.833 335.167,340.167 336.5,335.5 Z"/></g>
<g><path style="opacity:1" fill="#e4c447" d="M 422.5,333.5 C 422.5,338.833 422.5,344.167 422.5,349.5C 422.371,357.898 419.705,365.231 414.5,371.5C 416.318,366.524 418.151,361.524 420,356.5C 419.861,348.435 420.695,340.768 422.5,333.5 Z"/></g>
<g><path style="opacity:1" fill="#f4d451" d="M 349.5,334.5 C 349.359,346.429 351.359,358.096 355.5,369.5C 350.913,363.728 348.913,357.062 349.5,349.5C 349.5,344.833 349.5,340.167 349.5,335.5C 349.5,335.167 349.5,334.833 349.5,334.5 Z"/></g>
<g><path style="opacity:1" fill="#e23d2e" d="M 226.5,376.5 C 225.833,376.5 225.167,376.5 224.5,376.5C 216.657,369.337 212.657,360.337 212.5,349.5C 212.5,344.833 212.5,340.167 212.5,335.5C 212.38,334.414 211.713,333.747 210.5,333.5C 206.87,332.574 203.203,331.907 199.5,331.5C 202.625,330.521 205.958,330.187 209.5,330.5C 209.5,329.5 209.5,328.5 209.5,327.5C 211.716,327.275 213.383,328.108 214.5,330C 212.071,330.451 211.904,331.285 214,332.5C 214.168,341.186 214.668,349.852 215.5,358.5C 218.826,364.8 222.493,370.8 226.5,376.5 Z"/></g>
<g><path style="opacity:1" fill="#ef493a" d="M 285.5,353.5 C 285.173,361.478 282.173,368.145 276.5,373.5C 276.5,371.5 276.5,369.5 276.5,367.5C 277.5,367.5 278.5,367.5 279.5,367.5C 281.19,362.648 283.19,357.981 285.5,353.5 Z"/></g>
<g><path style="opacity:1" fill="#e84b3c" d="M 189.5,353.5 C 188.911,360.485 188.578,367.485 188.5,374.5C 193.167,374.5 197.833,374.5 202.5,374.5C 201.873,369.859 201.54,365.193 201.5,360.5C 208.146,375.201 203.48,380.534 187.5,376.5C 186.104,375.148 185.437,373.481 185.5,371.5C 186.473,365.287 187.806,359.287 189.5,353.5 Z"/></g>
<g><path style="opacity:0.867" fill="#f08b84" d="M 224.5,376.5 C 225.167,376.5 225.833,376.5 226.5,376.5C 226.833,377.167 227.167,377.833 227.5,378.5C 225.973,378.573 224.973,377.906 224.5,376.5 Z"/></g>
<g><path style="opacity:1" fill="#e44d40" d="M 227.5,378.5 C 228.873,378.343 230.207,378.51 231.5,379C 233.043,380.739 234.71,382.239 236.5,383.5C 232.748,383.06 229.748,381.393 227.5,378.5 Z"/></g>
<g><path style="opacity:1" fill="#f9d859" d="M 409.5,377.5 C 402.666,383.228 394.666,386.228 385.5,386.5C 382.263,386.322 379.263,385.655 376.5,384.5C 385.928,385.354 394.928,383.854 403.5,380C 402.5,379.667 401.5,379.333 400.5,379C 403.351,377.711 406.351,377.211 409.5,377.5 Z"/></g>
<g><path style="opacity:1" fill="#e65545" d="M 264.5,382.5 C 255.304,387.264 245.97,387.597 236.5,383.5C 245.894,384.94 255.228,384.607 264.5,382.5 Z"/></g>
<g><path style="opacity:0.871" fill="#fceab0" d="M 419.5,397.5 C 416.833,397.5 414.167,397.5 411.5,397.5C 414.119,395.028 416.786,395.028 419.5,397.5 Z"/></g>
<g><path style="opacity:1" fill="#0a0a0a" d="M 54.5,448.5 C 54.0269,447.094 53.0269,446.427 51.5,446.5C 50.7784,446.082 50.2784,445.416 50,444.5C 48.5356,432.338 51.7022,421.672 59.5,412.5C 60.9063,412.027 61.573,411.027 61.5,409.5C 68.2368,401.298 76.9035,397.131 87.5,397C 95.7956,405.634 104.296,413.801 113,421.5C 113.833,421.333 114.667,421.167 115.5,421C 122.469,413.03 129.802,405.364 137.5,398C 140.366,396.543 143.366,396.21 146.5,397C 168.253,406.02 178.087,422.186 176,445.5C 174.786,447.049 173.286,448.215 171.5,449C 132.331,449.831 93.3312,449.665 54.5,448.5 Z"/></g>
<g><path style="opacity:1" fill="#fc0101" d="M 233.5,407.5 C 233.525,410.179 234.858,411.512 237.5,411.5C 238.953,414.241 240.286,417.074 241.5,420C 241.167,420.333 240.833,420.667 240.5,421C 241.931,421.465 243.097,422.299 244,423.5C 245.543,422.715 247.21,422.715 249,423.5C 252.267,422.398 255.434,421.065 258.5,419.5C 259.875,415.91 261.542,412.576 263.5,409.5C 266.261,408.407 267.927,406.407 268.5,403.5C 271.025,401.823 273.691,400.323 276.5,399C 279.146,398.503 281.813,398.336 284.5,398.5C 285.791,398.263 286.791,398.596 287.5,399.5C 289.185,403.29 292.185,405.29 296.5,405.5C 297.037,407.711 298.037,409.711 299.5,411.5C 299.32,412.554 298.987,413.554 298.5,414.5C 300.078,415.072 301.578,415.406 303,415.5C 303.333,417.5 303.667,419.5 304,421.5C 305.414,420.587 306.914,420.587 308.5,421.5C 310.575,428.714 310.909,436.047 309.5,443.5C 307.3,444.325 306.966,445.658 308.5,447.5C 307.5,447.5 306.5,447.5 305.5,447.5C 266.476,447.81 227.476,447.476 188.5,446.5C 187.189,437.679 187.856,429.012 190.5,420.5C 191.383,417.296 193.05,414.629 195.5,412.5C 196.906,412.027 197.573,411.027 197.5,409.5C 201.332,408.345 204.332,406.012 206.5,402.5C 207.659,400.75 209.326,399.75 211.5,399.5C 218.143,397.064 223.477,398.731 227.5,404.5C 229.302,405.986 231.302,406.986 233.5,407.5 Z"/></g>
<g><path style="opacity:1" fill="#fdcc0a" d="M 411.5,397.5 C 414.167,397.5 416.833,397.5 419.5,397.5C 435.879,403.561 445.712,415.227 449,432.5C 449.667,436.5 449.667,440.5 449,444.5C 448.148,445.571 447.315,446.571 446.5,447.5C 407.529,448.649 368.529,448.815 329.5,448C 327.593,446.878 325.593,446.045 323.5,445.5C 323.395,438.088 324.062,430.755 325.5,423.5C 326.326,420.515 327.659,417.849 329.5,415.5C 332.879,413.032 335.546,410.032 337.5,406.5C 341.268,404.631 344.602,402.297 347.5,399.5C 351.849,398.46 356.182,398.46 360.5,399.5C 361.721,404.127 364.721,406.961 369.5,408C 371.741,409.739 373.408,411.906 374.5,414.5C 375.325,415.386 376.325,415.719 377.5,415.5C 379.63,417.127 381.63,418.96 383.5,421C 384.833,421.667 386.167,421.667 387.5,421C 392.369,415.963 397.369,411.13 402.5,406.5C 405.833,403.833 408.833,400.833 411.5,397.5 Z"/></g>
<g><path style="opacity:1" fill="#e73e32" d="M 233.5,407.5 C 231.302,406.986 229.302,405.986 227.5,404.5C 223.477,398.731 218.143,397.064 211.5,399.5C 215.027,396.871 219.027,396.038 223.5,397C 226.982,400.316 230.315,403.816 233.5,407.5 Z"/></g>
<g><path style="opacity:1" fill="#e6473a" d="M 284.5,398.5 C 281.813,398.336 279.146,398.503 276.5,399C 273.691,400.323 271.025,401.823 268.5,403.5C 272.377,396.538 277.711,394.871 284.5,398.5 Z"/></g>
<g><path style="opacity:0.855" fill="#f9e072" d="M 347.5,399.5 C 344.602,402.297 341.268,404.631 337.5,406.5C 340.125,403.185 343.458,400.851 347.5,399.5 Z"/></g>
<g><path style="opacity:1" fill="#f6d750" d="M 377.5,415.5 C 376.325,415.719 375.325,415.386 374.5,414.5C 373.408,411.906 371.741,409.739 369.5,408C 364.721,406.961 361.721,404.127 360.5,399.5C 356.182,398.46 351.849,398.46 347.5,399.5C 351.834,395.486 356.501,394.986 361.5,398C 367.409,403.404 372.742,409.237 377.5,415.5 Z"/></g>
<g><path style="opacity:1" fill="#e7493c" d="M 287.5,399.5 C 291.025,400.759 294.025,402.759 296.5,405.5C 292.185,405.29 289.185,403.29 287.5,399.5 Z"/></g>
<g><path style="opacity:0.667" fill="#fdea9b" d="M 411.5,397.5 C 408.833,400.833 405.833,403.833 402.5,406.5C 404.5,402.5 407.5,399.5 411.5,397.5 Z"/></g>
<g><path style="opacity:1" fill="#e25347" d="M 206.5,402.5 C 204.332,406.012 201.332,408.345 197.5,409.5C 199.949,406.444 202.949,404.111 206.5,402.5 Z"/></g>
<g><path style="opacity:0.882" fill="#ea6e64" d="M 268.5,403.5 C 267.927,406.407 266.261,408.407 263.5,409.5C 264.419,406.911 266.086,404.911 268.5,403.5 Z"/></g>
<g><path style="opacity:0.843" fill="#7c7c7c" d="M 61.5,409.5 C 61.573,411.027 60.9063,412.027 59.5,412.5C 59.427,410.973 60.0937,409.973 61.5,409.5 Z"/></g>
<g><path style="opacity:0.871" fill="#f28b8a" d="M 197.5,409.5 C 197.573,411.027 196.906,412.027 195.5,412.5C 195.427,410.973 196.094,409.973 197.5,409.5 Z"/></g>
<g><path style="opacity:1" fill="#e35141" d="M 233.5,407.5 C 235.167,408.5 236.5,409.833 237.5,411.5C 234.858,411.512 233.525,410.179 233.5,407.5 Z"/></g>
<g><path style="opacity:1" fill="#f9e17d" d="M 337.5,406.5 C 335.546,410.032 332.879,413.032 329.5,415.5C 330.75,413.068 332.25,410.734 334,408.5C 334.816,407.177 335.983,406.511 337.5,406.5 Z"/></g>
<g><path style="opacity:1" fill="#ec3325" d="M 296.5,405.5 C 302.417,409.414 306.417,414.747 308.5,421.5C 306.914,420.587 305.414,420.587 304,421.5C 303.667,419.5 303.333,417.5 303,415.5C 301.578,415.406 300.078,415.072 298.5,414.5C 298.987,413.554 299.32,412.554 299.5,411.5C 298.037,409.711 297.037,407.711 296.5,405.5 Z"/></g>
<g><path style="opacity:1" fill="#ea3929" d="M 263.5,409.5 C 261.542,412.576 259.875,415.91 258.5,419.5C 255.434,421.065 252.267,422.398 249,423.5C 247.21,422.715 245.543,422.715 244,423.5C 243.097,422.299 241.931,421.465 240.5,421C 240.833,420.667 241.167,420.333 241.5,420C 240.286,417.074 238.953,414.241 237.5,411.5C 240.999,414.166 243.999,417.333 246.5,421C 248.167,421.667 249.833,421.667 251.5,421C 255.369,416.963 259.369,413.13 263.5,409.5 Z"/></g>
<g><path style="opacity:1" fill="#e54939" d="M 308.5,421.5 C 311.387,427.035 313.054,433.035 313.5,439.5C 313.48,442.935 312.146,445.602 309.5,447.5C 309.167,447.5 308.833,447.5 308.5,447.5C 306.966,445.658 307.3,444.325 309.5,443.5C 310.909,436.047 310.575,428.714 308.5,421.5 Z"/></g>
<g><path style="opacity:1" fill="#f2d45d" d="M 325.5,423.5 C 324.062,430.755 323.395,438.088 323.5,445.5C 322.266,443.799 321.599,441.799 321.5,439.5C 321.991,433.83 323.324,428.497 325.5,423.5 Z"/></g>
<g><path style="opacity:0.51" fill="#8f8f8f" d="M 51.5,446.5 C 53.0269,446.427 54.0269,447.094 54.5,448.5C 52.9731,448.573 51.9731,447.906 51.5,446.5 Z"/></g>
<g><path style="opacity:1" fill="#e3281d" d="M 190.5,420.5 C 187.856,429.012 187.189,437.679 188.5,446.5C 227.476,447.476 266.476,447.81 305.5,447.5C 267.337,448.499 229.004,448.832 190.5,448.5C 186.254,446.557 184.587,443.224 185.5,438.5C 185.631,431.965 187.298,425.965 190.5,420.5 Z"/></g>
<g><path style="opacity:0.647" fill="#fd6c6d" d="M 305.5,447.5 C 306.5,447.5 307.5,447.5 308.5,447.5C 308.833,447.5 309.167,447.5 309.5,447.5C 309.082,448.222 308.416,448.722 307.5,449C 268.331,449.831 229.331,449.665 190.5,448.5C 229.004,448.832 267.337,448.499 305.5,447.5 Z"/></g>
<g><path style="opacity:0.63" fill="#fee26e" d="M 323.5,445.5 C 325.593,446.045 327.593,446.878 329.5,448C 368.529,448.815 407.529,448.649 446.5,447.5C 446.082,448.222 445.416,448.722 444.5,449C 405.5,449.667 366.5,449.667 327.5,449C 325.676,448.34 324.343,447.173 323.5,445.5 Z"/></g>
</svg>
