<svg version="1.1" id="Layer_1" xmlns="http://www.w3.org/2000/svg" xmlns:xlink="http://www.w3.org/1999/xlink" x="0px" y="0px"
	 width="100%" viewBox="0 0 500 500" enable-background="new 0 0 500 500" xml:space="preserve">
<path fill="#FFFFFF" opacity="1.000000" stroke="none" 
	d="
M260.000000,1.000001 
	C340.315979,1.000000 420.631927,1.000000 500.973938,1.000000 
	C500.973938,167.613281 500.973938,334.226562 500.973938,500.919922 
	C334.422760,500.919922 167.845490,500.919922 1.134107,500.919922 
	C1.134107,334.333405 1.134107,167.666718 1.128861,1.000018 
	C84.105736,1.000000 167.087860,1.000000 250.534149,1.468657 
	C250.998322,12.012623 250.998322,22.087931 250.998322,30.898685 
	C258.465546,33.106041 265.944000,33.681629 271.440643,37.282490 
	C282.828827,44.742905 294.846344,42.513142 306.627930,42.931587 
	C306.627930,33.192371 306.627930,24.135990 306.627930,14.814761 
	C300.272278,14.814761 294.226959,15.342159 288.328522,14.638477 
	C284.044739,14.127427 279.729431,12.434717 275.833466,10.466592 
	C270.358704,7.700891 265.259705,4.191402 260.000000,1.000001 
M424.681427,351.019623 
	C425.133423,349.981445 425.945068,348.953491 425.974884,347.903290 
	C426.101624,343.442444 425.996490,338.974976 426.780151,334.219940 
	C432.461487,333.121277 438.141418,332.015350 443.824615,330.926392 
	C447.610321,330.200989 450.441895,328.344482 450.512054,324.171143 
	C450.584869,319.839233 447.990601,317.715271 443.839233,316.920166 
	C437.852661,315.773560 431.918579,314.352966 425.995575,312.106323 
	C425.995575,271.503204 425.995575,230.900070 425.995575,190.297058 
	C309.052216,190.297058 192.652832,190.297058 76.047798,190.297058 
	C76.047798,231.402512 76.047798,272.211914 75.413506,313.488220 
	C69.565002,314.657074 63.619530,315.493103 57.914753,317.155273 
	C55.567142,317.839325 52.612785,319.965576 51.990692,322.049652 
	C51.376373,324.107666 53.322960,326.953461 54.216103,329.428406 
	C54.674919,330.699860 55.826183,331.953400 55.743645,333.151611 
	C55.073742,342.876678 54.268326,352.594818 53.317924,362.296814 
	C52.995937,365.583740 52.081078,368.808655 51.542419,372.079254 
	C50.906738,375.938934 52.330795,378.214294 56.532078,378.171478 
	C58.027367,378.156250 59.522961,378.171234 61.018414,378.170746 
	C69.049286,378.168091 70.215286,376.842499 68.474884,369.137665 
	C65.761276,357.124359 63.657845,345.073395 65.265488,332.152283 
	C68.926529,333.100189 72.529266,334.033020 76.019798,335.898254 
	C76.015694,339.994293 75.881470,344.097412 76.103439,348.181152 
	C76.155739,349.143524 77.408272,350.040680 78.439163,351.727600 
	C78.710243,360.521881 81.583992,368.336121 87.422775,374.949371 
	C97.277283,386.111115 112.708290,390.349731 126.473473,385.266144 
	C142.204010,379.456787 150.088394,367.707977 151.993790,351.012970 
	C165.140930,351.016388 178.288055,351.019806 191.515762,351.886841 
	C190.561691,356.781342 189.647247,361.683960 188.645493,366.568695 
	C186.362640,377.700500 186.761261,378.212524 198.012268,378.169800 
	C204.709106,378.144379 206.102142,376.383667 204.774002,369.590271 
	C203.564606,363.404388 202.340332,357.221405 202.033798,351.005737 
	C206.080002,351.006165 210.126221,351.006592 214.429169,351.773346 
	C214.965881,361.977631 218.526779,370.899048 226.249252,377.735229 
	C237.438065,387.639923 250.436066,390.127472 264.197418,384.628876 
	C279.053680,378.692749 286.308807,366.857117 288.081299,350.999664 
	C301.351410,351.008972 314.621490,351.018280 327.963501,351.831299 
	C327.038574,356.389160 326.112335,360.946777 325.188965,365.504974 
	C322.660553,377.986755 323.171234,378.586212 335.960449,378.157990 
	C340.920563,377.991943 342.355896,376.151398 341.434418,371.144958 
	C340.201935,364.449097 338.971924,357.752777 338.708923,351.009583 
	C342.752136,351.008118 346.795349,351.006653 350.971130,351.863861 
	C351.815186,367.262848 359.160431,378.568329 373.342133,384.422943 
	C387.486084,390.261963 400.799774,387.704620 412.202087,377.300049 
	C419.854950,370.316895 423.071106,361.191040 424.681427,351.019623 
M271.997498,162.504730 
	C271.997498,169.268356 271.997498,176.031982 271.997498,182.673523 
	C277.023743,182.673523 281.422516,182.673523 286.253204,182.673523 
	C286.253204,170.944229 286.253204,159.539520 286.253204,148.372726 
	C291.103027,148.372726 295.505249,148.372726 300.154419,148.372726 
	C300.154419,160.023102 300.154419,171.304169 300.154419,182.772308 
	C304.820404,182.772308 309.219147,182.772308 314.058380,182.772308 
	C314.058380,171.146332 314.058380,159.742615 314.058380,148.273926 
	C318.903473,148.273926 323.302063,148.273926 328.135071,148.273926 
	C328.135071,159.942825 328.135071,171.347733 328.135071,182.693161 
	C332.982147,182.693161 337.381714,182.693161 341.981842,182.693161 
	C341.981842,171.082138 341.981842,159.778473 341.981842,148.423157 
	C345.731140,147.140305 349.783173,145.309067 348.725922,141.063400 
	C347.918396,137.820633 344.670593,135.185532 342.508301,132.280121 
	C335.980957,83.068443 295.257233,49.704445 250.377960,49.991375 
	C203.844604,50.288876 164.306030,86.414642 160.220108,133.816376 
	C155.665985,133.888153 152.480972,136.223557 152.362839,140.903366 
	C152.245544,145.550156 155.467621,147.854523 160.259033,148.468292 
	C160.259033,160.053589 160.259033,171.464844 160.259033,182.633041 
	C165.104385,182.633041 169.507309,182.633041 174.157562,182.633041 
	C174.157562,170.983383 174.157562,159.702316 174.157562,148.235229 
	C178.822723,148.235229 183.220551,148.235229 188.058777,148.235229 
	C188.058777,159.863785 188.058777,171.267883 188.058777,182.731842 
	C192.904465,182.731842 197.304031,182.731842 202.138168,182.731842 
	C202.138168,171.063721 202.138168,159.658829 202.138168,148.314392 
	C206.984390,148.314392 211.382996,148.314392 216.214874,148.314392 
	C216.214874,160.025650 216.214874,171.429840 216.214874,182.652710 
	C221.062836,182.652710 225.463699,182.652710 230.294250,182.652710 
	C230.294250,170.901581 230.294250,159.496902 230.294250,148.215576 
	C235.021439,148.215576 239.305115,148.215576 244.020020,148.215576 
	C244.020020,159.823486 244.020020,171.227753 244.020020,182.751511 
	C248.863724,182.751511 253.262787,182.751511 258.099426,182.751511 
	C258.099426,171.103928 258.099426,159.699692 258.099426,148.294739 
	C262.945496,148.294739 267.344025,148.294739 271.997498,148.294739 
	C271.997498,152.892319 271.997498,157.200195 271.997498,162.504730 
M102.054604,412.434784 
	C98.507790,408.688995 95.272354,404.556030 91.289108,401.352966 
	C89.142235,399.626556 85.399391,398.225067 82.915756,398.843231 
	C65.101685,403.276886 50.699467,423.059967 51.317661,441.456482 
	C51.515430,447.341797 54.341228,450.555664 60.240730,450.572205 
	C96.541420,450.674011 132.842636,450.668732 169.143402,450.580322 
	C175.047821,450.565948 177.916809,447.348450 178.029297,441.508118 
	C178.369385,423.852234 166.817368,406.784424 149.851318,399.875977 
	C143.225815,397.178162 141.186234,397.644379 136.249451,402.930786 
	C130.571960,409.010406 124.840286,415.040039 119.212303,421.165039 
	C116.247765,424.391388 113.476624,424.742828 110.424652,421.291016 
	C107.891113,418.425507 105.181915,415.715302 102.054604,412.434784 
M266.047546,409.547211 
	C262.535858,413.320282 259.075012,417.142334 255.498749,420.853210 
	C251.616287,424.881805 249.915726,424.894806 246.054413,420.860565 
	C240.186600,414.729858 234.317917,408.594940 228.629654,402.299103 
	C225.031036,398.316223 221.219360,397.360016 216.201370,399.591888 
	C199.260712,407.126556 189.347000,419.700500 187.649033,438.388489 
	C186.817184,447.543762 189.572144,450.621429 198.715179,450.628326 
	C221.193359,450.645294 243.671585,450.633881 266.149780,450.633850 
	C278.804169,450.633820 291.458832,450.684235 304.112823,450.613739 
	C311.116211,450.574738 314.165710,447.708374 314.009186,441.071503 
	C313.581940,422.953552 304.823029,409.858734 289.145386,401.339142 
	C280.029541,396.385406 278.257629,396.892944 271.031250,404.352692 
	C269.526184,405.906372 268.042450,407.480713 266.047546,409.547211 
M329.825195,419.395874 
	C325.960480,426.166351 323.754944,433.369690 323.947205,441.245514 
	C324.096344,447.353607 326.900909,450.607300 333.075409,450.624115 
	C369.189636,450.722473 405.304352,450.722748 441.418549,450.623779 
	C447.754303,450.606415 450.773621,447.060486 450.628143,440.741577 
	C450.209290,422.543884 438.720123,406.386414 421.685120,399.492950 
	C416.591248,397.431641 412.773621,398.455292 409.218628,402.351959 
	C403.614655,408.494568 397.894440,414.531494 392.196106,420.587463 
	C388.165497,424.871124 386.430725,424.945099 382.395966,420.752899 
	C376.513550,414.641113 370.639709,408.515472 364.950745,402.225250 
	C361.324860,398.216156 357.511963,397.431549 352.494843,399.601074 
	C343.012817,403.701324 335.526611,409.940186 329.825195,419.395874 
z"/>
<path fill="#343434" opacity="1.000000" stroke="none" 
	d="
M259.550018,1.000001 
	C265.259705,4.191402 270.358704,7.700891 275.833466,10.466592 
	C279.729431,12.434717 284.044739,14.127427 288.328522,14.638477 
	C294.226959,15.342159 300.272278,14.814761 306.627930,14.814761 
	C306.627930,24.135990 306.627930,33.192371 306.627930,42.931587 
	C294.846344,42.513142 282.828827,44.742905 271.440643,37.282490 
	C265.944000,33.681629 258.465546,33.106041 250.998322,30.898685 
	C250.998322,22.087931 250.998322,12.012623 250.999161,1.468657 
	C253.700012,1.000000 256.400024,1.000000 259.550018,1.000001 
z"/>
<path fill="#343434" opacity="1.000000" stroke="none" 
	d="
M271.997498,162.006393 
	C271.997498,157.200195 271.997498,152.892319 271.997498,148.294739 
	C267.344025,148.294739 262.945496,148.294739 258.099426,148.294739 
	C258.099426,159.699692 258.099426,171.103928 258.099426,182.751511 
	C253.262787,182.751511 248.863724,182.751511 244.020020,182.751511 
	C244.020020,171.227753 244.020020,159.823486 244.020020,148.215576 
	C239.305115,148.215576 235.021439,148.215576 230.294250,148.215576 
	C230.294250,159.496902 230.294250,170.901581 230.294250,182.652710 
	C225.463699,182.652710 221.062836,182.652710 216.214874,182.652710 
	C216.214874,171.429840 216.214874,160.025650 216.214874,148.314392 
	C211.382996,148.314392 206.984390,148.314392 202.138168,148.314392 
	C202.138168,159.658829 202.138168,171.063721 202.138168,182.731842 
	C197.304031,182.731842 192.904465,182.731842 188.058777,182.731842 
	C188.058777,171.267883 188.058777,159.863785 188.058777,148.235229 
	C183.220551,148.235229 178.822723,148.235229 174.157562,148.235229 
	C174.157562,159.702316 174.157562,170.983383 174.157562,182.633041 
	C169.507309,182.633041 165.104385,182.633041 160.259033,182.633041 
	C160.259033,171.464844 160.259033,160.053589 160.259033,148.468292 
	C155.467621,147.854523 152.245544,145.550156 152.362839,140.903366 
	C152.480972,136.223557 155.665985,133.888153 160.220108,133.816376 
	C164.306030,86.414642 203.844604,50.288876 250.377960,49.991375 
	C295.257233,49.704445 335.980957,83.068443 342.508301,132.280121 
	C344.670593,135.185532 347.918396,137.820633 348.725922,141.063400 
	C349.783173,145.309067 345.731140,147.140305 341.981842,148.423157 
	C341.981842,159.778473 341.981842,171.082138 341.981842,182.693161 
	C337.381714,182.693161 332.982147,182.693161 328.135071,182.693161 
	C328.135071,171.347733 328.135071,159.942825 328.135071,148.273926 
	C323.302063,148.273926 318.903473,148.273926 314.058380,148.273926 
	C314.058380,159.742615 314.058380,171.146332 314.058380,182.772308 
	C309.219147,182.772308 304.820404,182.772308 300.154419,182.772308 
	C300.154419,171.304169 300.154419,160.023102 300.154419,148.372726 
	C295.505249,148.372726 291.103027,148.372726 286.253204,148.372726 
	C286.253204,159.539520 286.253204,170.944229 286.253204,182.673523 
	C281.422516,182.673523 277.023743,182.673523 271.997498,182.673523 
	C271.997498,176.031982 271.997498,169.268356 271.997498,162.006393 
M193.501022,133.998322 
	C237.693909,133.998322 281.886780,133.998322 326.128265,133.998322 
	C323.097565,95.894730 289.956818,61.365295 245.980072,64.164001 
	C204.552002,66.800507 176.847458,102.732628 176.086945,133.998322 
	C181.561386,133.998322 187.031433,133.998322 193.501022,133.998322 
z"/>
<path fill="#333333" opacity="1.000000" stroke="none" 
	d="
M76.047798,313.021301 
	C76.047798,272.211914 76.047798,231.402512 76.047798,190.297058 
	C192.652832,190.297058 309.052216,190.297058 425.995575,190.297058 
	C425.995575,230.900070 425.995575,271.503204 425.568115,312.610687 
	C420.735229,312.182434 416.329834,311.249817 411.958313,309.822571 
	C411.992188,274.257660 411.992188,239.187317 411.992188,204.353775 
	C304.229492,204.353775 197.182861,204.353775 89.972610,204.353775 
	C89.972610,239.857361 89.972610,275.006927 89.697067,310.413422 
	C84.963615,311.454010 80.505707,312.237671 76.047798,313.021301 
z"/>
<path fill="#020202" opacity="1.000000" stroke="none" 
	d="
M75.730652,313.254761 
	C80.505707,312.237671 84.963615,311.454010 90.118408,310.492035 
	C97.559456,308.883270 104.303619,307.452820 111.491333,306.020081 
	C114.725937,306.300720 117.536644,306.458313 120.304070,306.892059 
	C126.512352,307.865082 132.699142,308.975311 139.166382,310.313232 
	C146.316345,311.821442 153.194611,313.046143 160.347778,314.505554 
	C163.807465,315.462372 166.992218,316.184448 170.552383,316.949890 
	C175.281448,317.438110 178.116394,319.471222 177.997955,324.199982 
	C177.883835,328.756012 174.685791,330.238098 170.833313,330.974792 
	C165.485626,331.997437 160.115479,332.935822 154.825348,334.203979 
	C153.440857,334.535858 152.316742,335.953888 151.051193,337.346191 
	C151.043549,342.255676 151.057785,346.692017 151.072021,351.128387 
	C150.088394,367.707977 142.204010,379.456787 126.473473,385.266144 
	C112.708290,390.349731 97.277283,386.111115 87.422775,374.949371 
	C81.583992,368.336121 78.710243,360.521881 78.538086,351.036438 
	C78.729568,346.229492 79.012833,342.103119 78.784088,338.005310 
	C78.724960,336.946106 77.059555,335.976562 76.132004,334.965820 
	C72.529266,334.033020 68.926529,333.100189 65.265488,332.152283 
	C63.657845,345.073395 65.761276,357.124359 68.474884,369.137665 
	C70.215286,376.842499 69.049286,378.168091 61.018414,378.170746 
	C59.522961,378.171234 58.027367,378.156250 56.532078,378.171478 
	C52.330795,378.214294 50.906738,375.938934 51.542419,372.079254 
	C52.081078,368.808655 52.995937,365.583740 53.317924,362.296814 
	C54.268326,352.594818 55.073742,342.876678 55.743645,333.151611 
	C55.826183,331.953400 54.674919,330.699860 54.216103,329.428406 
	C53.322960,326.953461 51.376373,324.107666 51.990692,322.049652 
	C52.612785,319.965576 55.567142,317.839325 57.914753,317.155273 
	C63.619530,315.493103 69.565002,314.657074 75.730652,313.254761 
z"/>
<path fill="#FF0202" opacity="1.000000" stroke="none" 
	d="
M201.122620,351.037140 
	C202.340332,357.221405 203.564606,363.404388 204.774002,369.590271 
	C206.102142,376.383667 204.709106,378.144379 198.012268,378.169800 
	C186.761261,378.212524 186.362640,377.700500 188.645493,366.568695 
	C189.647247,361.683960 190.561691,356.781342 191.639221,351.085571 
	C191.714264,345.853882 191.665833,341.423523 191.709808,336.575531 
	C191.268753,333.913940 190.808441,331.649353 190.182571,329.431427 
	C189.466309,326.893158 187.489853,324.061005 188.117966,321.976349 
	C188.740540,319.910034 191.689453,317.888153 194.032455,317.133667 
	C198.888153,315.569977 204.018646,314.859650 209.433731,313.834106 
	C218.900909,311.931427 227.970490,309.993103 237.452881,308.093445 
	C244.564133,307.714417 251.262589,307.296722 258.336121,307.016296 
	C267.784363,308.902710 276.857544,310.651855 286.252014,312.604004 
	C293.243164,314.084900 299.912994,315.362793 306.901001,316.791138 
	C311.435089,317.666626 314.317383,319.643921 314.012451,324.427032 
	C313.721985,328.983490 310.503540,330.295715 306.665985,330.998871 
	C301.319122,331.978546 295.962219,332.947449 290.684296,334.228607 
	C289.363678,334.549133 288.328583,336.045898 287.098175,337.462891 
	C287.078674,342.282928 287.123260,346.642090 287.167847,351.001282 
	C286.308807,366.857117 279.053680,378.692749 264.197418,384.628876 
	C250.436066,390.127472 237.438065,387.639923 226.249252,377.735229 
	C218.526779,370.899048 214.965881,361.977631 214.480743,351.028748 
	C214.446030,345.854523 214.359741,341.424896 214.390411,336.647705 
	C210.178909,334.767059 205.850449,333.233978 201.010666,331.519806 
	C201.010666,334.143585 201.010666,335.576782 200.945587,337.470825 
	C200.961212,342.300171 201.041916,346.668640 201.122620,351.037140 
z"/>
<path fill="#FFCC02" opacity="1.000000" stroke="none" 
	d="
M411.924438,310.317200 
	C416.329834,311.249817 420.735229,312.182434 425.551361,313.082153 
	C431.918579,314.352966 437.852661,315.773560 443.839233,316.920166 
	C447.990601,317.715271 450.584869,319.839233 450.512054,324.171143 
	C450.441895,328.344482 447.610321,330.200989 443.824615,330.926392 
	C438.141418,332.015350 432.461487,333.121277 426.011169,334.338623 
	C424.584961,335.255249 423.366791,336.050354 423.362732,336.851593 
	C423.338867,341.582153 423.597198,346.314117 423.760559,351.045624 
	C423.071106,361.191040 419.854950,370.316895 412.202087,377.300049 
	C400.799774,387.704620 387.486084,390.261963 373.342133,384.422943 
	C359.160431,378.568329 351.815186,367.262848 350.976013,350.974182 
	C350.940826,345.726807 350.900757,341.369141 350.920410,336.628632 
	C346.618652,334.732452 342.257233,333.219055 337.347443,331.515411 
	C337.347443,334.161285 337.347443,335.586090 337.266632,337.465881 
	C337.370850,342.299500 337.555847,346.678070 337.740845,351.056671 
	C338.971924,357.752777 340.201935,364.449097 341.434418,371.144958 
	C342.355896,376.151398 340.920563,377.991943 335.960449,378.157990 
	C323.171234,378.586212 322.660553,377.986755 325.188965,365.504974 
	C326.112335,360.946777 327.038574,356.389160 328.033936,350.973297 
	C328.052124,345.745605 327.999908,341.375885 328.034180,336.582642 
	C327.748413,333.981445 328.070557,331.273254 326.882751,329.718903 
	C321.965057,323.283508 323.170166,319.023834 331.351776,316.795990 
	C332.789398,316.459503 333.880310,316.164642 335.375244,315.896423 
	C342.541656,314.525391 349.304077,313.127716 356.453369,311.736511 
	C365.906433,309.829773 374.972595,307.916534 384.480438,306.027649 
	C386.910797,306.141846 388.936951,306.018402 390.881378,306.359924 
	C397.910583,307.594513 404.912323,308.985352 411.924438,310.317200 
z"/>
<path fill="#040404" opacity="1.000000" stroke="none" 
	d="
M102.302567,412.685547 
	C105.181915,415.715302 107.891113,418.425507 110.424652,421.291016 
	C113.476624,424.742828 116.247765,424.391388 119.212303,421.165039 
	C124.840286,415.040039 130.571960,409.010406 136.249451,402.930786 
	C141.186234,397.644379 143.225815,397.178162 149.851318,399.875977 
	C166.817368,406.784424 178.369385,423.852234 178.029297,441.508118 
	C177.916809,447.348450 175.047821,450.565948 169.143402,450.580322 
	C132.842636,450.668732 96.541420,450.674011 60.240730,450.572205 
	C54.341228,450.555664 51.515430,447.341797 51.317661,441.456482 
	C50.699467,423.059967 65.101685,403.276886 82.915756,398.843231 
	C85.399391,398.225067 89.142235,399.626556 91.289108,401.352966 
	C95.272354,404.556030 98.507790,408.688995 102.302567,412.685547 
z"/>
<path fill="#FF0404" opacity="1.000000" stroke="none" 
	d="
M266.298218,409.296387 
	C268.042450,407.480713 269.526184,405.906372 271.031250,404.352692 
	C278.257629,396.892944 280.029541,396.385406 289.145386,401.339142 
	C304.823029,409.858734 313.581940,422.953552 314.009186,441.071503 
	C314.165710,447.708374 311.116211,450.574738 304.112823,450.613739 
	C291.458832,450.684235 278.804169,450.633820 266.149780,450.633850 
	C243.671585,450.633881 221.193359,450.645294 198.715179,450.628326 
	C189.572144,450.621429 186.817184,447.543762 187.649033,438.388489 
	C189.347000,419.700500 199.260712,407.126556 216.201370,399.591888 
	C221.219360,397.360016 225.031036,398.316223 228.629654,402.299103 
	C234.317917,408.594940 240.186600,414.729858 246.054413,420.860565 
	C249.915726,424.894806 251.616287,424.881805 255.498749,420.853210 
	C259.075012,417.142334 262.535858,413.320282 266.298218,409.296387 
z"/>
<path fill="#FFCD04" opacity="1.000000" stroke="none" 
	d="
M329.984680,419.064941 
	C335.526611,409.940186 343.012817,403.701324 352.494843,399.601074 
	C357.511963,397.431549 361.324860,398.216156 364.950745,402.225250 
	C370.639709,408.515472 376.513550,414.641113 382.395966,420.752899 
	C386.430725,424.945099 388.165497,424.871124 392.196106,420.587463 
	C397.894440,414.531494 403.614655,408.494568 409.218628,402.351959 
	C412.773621,398.455292 416.591248,397.431641 421.685120,399.492950 
	C438.720123,406.386414 450.209290,422.543884 450.628143,440.741577 
	C450.773621,447.060486 447.754303,450.606415 441.418549,450.623779 
	C405.304352,450.722748 369.189636,450.722473 333.075409,450.624115 
	C326.900909,450.607300 324.096344,447.353607 323.947205,441.245514 
	C323.754944,433.369690 325.960480,426.166351 329.984680,419.064941 
z"/>
<path fill="#333333" opacity="1.000000" stroke="none" 
	d="
M327.947693,337.006195 
	C327.999908,341.375885 328.052124,345.745605 327.997986,350.571411 
	C314.621490,351.018280 301.351410,351.008972 287.624573,351.000488 
	C287.123260,346.642090 287.078674,342.282928 287.555176,337.464966 
	C301.366760,337.006195 314.657196,337.006195 327.947693,337.006195 
z"/>
<path fill="#343333" opacity="1.000000" stroke="none" 
	d="
M191.617416,336.993134 
	C191.665833,341.423523 191.714264,345.853882 191.598938,350.653748 
	C178.288055,351.019806 165.140930,351.016388 151.532898,351.070679 
	C151.057785,346.692017 151.043549,342.255676 151.512085,337.403198 
	C165.202377,336.989105 178.409897,336.991119 191.617416,336.993134 
z"/>
<path fill="#3A3131" opacity="1.000000" stroke="none" 
	d="
M201.578201,351.021423 
	C201.041916,346.668640 200.961212,342.300171 201.406311,337.478699 
	C206.045883,337.015564 210.159653,337.005432 214.273438,336.995300 
	C214.359741,341.424896 214.446030,345.854523 214.352386,350.645569 
	C210.126221,351.006592 206.080002,351.006165 201.578201,351.021423 
z"/>
<path fill="#373632" opacity="1.000000" stroke="none" 
	d="
M350.860718,337.011444 
	C350.900757,341.369141 350.940826,345.726807 350.909729,350.544861 
	C346.795349,351.006653 342.752136,351.008118 338.224884,351.033142 
	C337.555847,346.678070 337.370850,342.299500 337.703613,337.466919 
	C342.434540,337.012421 346.647614,337.011932 350.860718,337.011444 
z"/>
<path fill="#564E2A" opacity="1.000000" stroke="none" 
	d="
M424.221008,351.032623 
	C423.597198,346.314117 423.338867,341.582153 423.362732,336.851593 
	C423.366791,336.050354 424.584961,335.255249 425.609100,334.483643 
	C425.996490,338.974976 426.101624,343.442444 425.974884,347.903290 
	C425.945068,348.953491 425.133423,349.981445 424.221008,351.032623 
z"/>
<path fill="#303030" opacity="1.000000" stroke="none" 
	d="
M76.075897,335.432068 
	C77.059555,335.976562 78.724960,336.946106 78.784088,338.005310 
	C79.012833,342.103119 78.729568,346.229492 78.372841,350.656555 
	C77.408272,350.040680 76.155739,349.143524 76.103439,348.181152 
	C75.881470,344.097412 76.015694,339.994293 76.075897,335.432068 
z"/>
<path fill="#FEFEFE" opacity="1.000000" stroke="none" 
	d="
M193.001251,133.998322 
	C187.031433,133.998322 181.561386,133.998322 176.086945,133.998322 
	C176.847458,102.732628 204.552002,66.800507 245.980072,64.164001 
	C289.956818,61.365295 323.097565,95.894730 326.128265,133.998322 
	C281.886780,133.998322 237.693909,133.998322 193.001251,133.998322 
z"/>
<path fill="#FFFFFF" opacity="1.000000" stroke="none" 
	d="
M191.709808,336.575531 
	C178.409897,336.991119 165.202377,336.989105 151.533966,336.930115 
	C152.316742,335.953888 153.440857,334.535858 154.825348,334.203979 
	C160.115479,332.935822 165.485626,331.997437 170.833313,330.974792 
	C174.685791,330.238098 177.883835,328.756012 177.997955,324.199982 
	C178.116394,319.471222 175.281448,317.438110 170.713181,316.553040 
	C176.239914,316.112915 181.981232,316.112915 187.733734,316.112915 
	C187.733734,308.730591 187.733734,302.020935 187.733734,295.241577 
	C178.431488,295.241577 169.396851,295.241577 160.072876,295.241577 
	C160.072876,301.741577 160.072876,308.006195 160.072876,314.270844 
	C153.194611,313.046143 146.316345,311.821442 139.213028,309.845947 
	C138.987976,304.488129 138.987976,299.881042 138.987976,295.295166 
	C129.371246,295.295166 120.300354,295.295166 111.047791,295.295166 
	C111.047791,299.065704 111.047791,302.544037 111.047791,306.022400 
	C104.303619,307.452820 97.559456,308.883270 90.393951,310.235107 
	C89.972610,275.006927 89.972610,239.857361 89.972610,204.353775 
	C197.182861,204.353775 304.229492,204.353775 411.992188,204.353775 
	C411.992188,239.187317 411.992188,274.257660 411.958313,309.822601 
	C404.912323,308.985352 397.910583,307.594513 390.881378,306.359924 
	C388.936951,306.018402 386.910797,306.141846 384.463989,305.564148 
	C384.005798,301.817871 384.005798,298.559448 384.005798,295.225708 
	C374.449249,295.225708 365.418152,295.225708 356.066467,295.225708 
	C356.066467,300.873718 356.066467,306.301910 356.066467,311.730042 
	C349.304077,313.127716 342.541656,314.525391 335.387939,315.437866 
	C334.996613,308.374817 334.996613,301.796967 334.996613,295.296631 
	C325.339905,295.296631 316.293335,295.296631 307.041840,295.296631 
	C307.041840,302.378418 307.041840,309.166229 306.915253,316.117798 
	C306.788666,316.281555 306.582794,316.640686 306.582794,316.640686 
	C299.912994,315.362793 293.243164,314.084900 286.282715,312.102234 
	C285.992065,306.002228 285.992065,300.606934 285.992065,295.269501 
	C276.344971,295.269501 267.314606,295.269501 258.430817,295.269501 
	C258.218628,295.676361 258.086243,295.812805 258.084381,295.951019 
	C258.035065,299.593567 257.999176,303.236328 257.961029,306.879028 
	C251.262589,307.296722 244.564133,307.714417 237.435028,307.623352 
	C237.004379,303.182678 237.004379,299.250793 237.004379,295.241119 
	C227.447937,295.241119 218.404419,295.241119 209.036133,295.241119 
	C209.036133,301.583496 209.036133,307.690948 209.036133,313.798431 
	C204.018646,314.859650 198.888153,315.569977 194.032455,317.133667 
	C191.689453,317.888153 188.740540,319.910034 188.117966,321.976349 
	C187.489853,324.061005 189.466309,326.893158 190.182571,329.431427 
	C190.808441,331.649353 191.268753,333.913940 191.709808,336.575531 
M310.664459,245.999420 
	C318.733032,245.999420 326.801605,245.999420 334.644714,245.999420 
	C334.644714,238.571625 334.644714,231.845932 334.644714,225.355118 
	C325.232391,225.355118 316.177460,225.355118 307.001190,225.355118 
	C307.001190,231.521332 306.875946,237.338791 307.122223,243.140457 
	C307.164093,244.127853 308.798431,245.047638 310.664459,245.999420 
M125.496254,225.000488 
	C120.741928,225.000488 115.987595,225.000488 111.302979,225.000488 
	C111.302979,232.324219 111.302979,239.046295 111.302979,245.700195 
	C120.658707,245.700195 129.709061,245.700195 138.696747,245.700195 
	C138.696747,238.675186 138.696747,231.953094 138.696747,225.000488 
	C134.428055,225.000488 130.460022,225.000488 125.496254,225.000488 
M162.693817,225.001343 
	C161.797195,225.787277 160.152679,226.546249 160.123230,227.363449 
	C159.903610,233.454575 160.003952,239.557236 160.003952,245.754150 
	C169.544510,245.754150 178.595352,245.754150 187.748779,245.754150 
	C187.748779,238.784821 187.748779,232.063416 187.748779,225.000580 
	C179.556519,225.000580 171.610519,225.000580 162.693817,225.001343 
M217.546204,245.999512 
	C223.961655,245.999512 230.377106,245.999512 236.684692,245.999512 
	C236.684692,238.651367 236.684692,231.928329 236.684692,225.313538 
	C227.315109,225.313538 218.263428,225.313538 209.318161,225.313538 
	C209.318161,232.353821 209.318161,239.076996 209.318161,245.999512 
	C211.942444,245.999512 214.253220,245.999512 217.546204,245.999512 
M262.632446,245.999496 
	C270.371399,245.999496 278.110382,245.999496 285.655334,245.999496 
	C285.655334,238.593140 285.655334,231.867889 285.655334,225.344421 
	C276.254059,225.344421 267.199768,225.344421 258.000824,225.344421 
	C258.000824,231.330521 258.179657,236.981415 257.929230,242.613205 
	C257.793610,245.663361 259.046448,246.384506 262.632446,245.999496 
M172.508011,280.999542 
	C177.593781,280.999542 182.679535,280.999542 187.695984,280.999542 
	C187.695984,273.673706 187.695984,266.951904 187.695984,260.301208 
	C178.338882,260.301208 169.288239,260.301208 160.304962,260.301208 
	C160.304962,267.328003 160.304962,274.050354 160.304962,280.999542 
	C164.243546,280.999542 167.879745,280.999542 172.508011,280.999542 
M371.491974,225.000488 
	C366.406219,225.000488 361.320435,225.000488 356.304016,225.000488 
	C356.304016,232.326035 356.304016,239.048325 356.304016,245.698776 
	C365.661133,245.698776 374.711761,245.698776 383.695068,245.698776 
	C383.695068,238.672028 383.695068,231.949707 383.695068,225.000488 
	C379.756439,225.000488 376.120270,225.000488 371.491974,225.000488 
M111.000519,269.517517 
	C111.000519,273.275635 111.000519,277.033722 111.000519,280.694031 
	C120.669502,280.694031 129.720901,280.694031 138.689529,280.694031 
	C138.689529,273.661560 138.689529,266.938568 138.689529,260.308716 
	C129.325073,260.308716 120.273659,260.308716 111.000519,260.308716 
	C111.000519,263.253326 111.000519,265.894287 111.000519,269.517517 
M218.534790,280.999542 
	C224.617783,280.999542 230.700790,280.999542 236.688782,280.999542 
	C236.688782,273.659393 236.688782,266.936646 236.688782,260.308777 
	C227.323959,260.308777 218.272903,260.308777 209.312836,260.308777 
	C209.312836,267.343781 209.312836,274.066498 209.312836,280.999542 
	C212.262695,280.999542 214.904434,280.999542 218.534790,280.999542 
M258.000458,270.501587 
	C258.000458,273.929565 258.000458,277.357544 258.000458,280.698975 
	C267.659546,280.698975 276.710754,280.698975 285.694641,280.698975 
	C285.694641,273.671997 285.694641,266.949249 285.694641,260.303406 
	C276.335571,260.303406 267.284363,260.303406 258.000458,260.303406 
	C258.000458,263.575317 258.000458,266.546448 258.000458,270.501587 
M321.496277,260.000458 
	C316.741943,260.000458 311.987610,260.000458 307.302917,260.000458 
	C307.302917,267.324463 307.302917,274.045990 307.302917,280.700195 
	C316.658691,280.700195 325.709045,280.700195 334.696777,280.700195 
	C334.696777,273.675171 334.696777,266.953094 334.696777,260.000458 
	C330.428040,260.000458 326.460022,260.000458 321.496277,260.000458 
M383.991089,279.271759 
	C383.991089,272.870941 383.991089,266.470123 383.991089,260.377167 
	C374.188232,260.377167 365.131653,260.377167 356.206909,260.377167 
	C356.206909,267.361053 356.206909,273.966827 356.206909,280.231232 
	C365.584869,280.231232 374.750122,280.231232 383.991089,279.271759 
z"/>
<path fill="#333333" opacity="1.000000" stroke="none" 
	d="
M160.347778,314.505554 
	C160.072876,308.006195 160.072876,301.741577 160.072876,295.241577 
	C169.396851,295.241577 178.431488,295.241577 187.733734,295.241577 
	C187.733734,302.020935 187.733734,308.730591 187.733734,316.112915 
	C181.981232,316.112915 176.239914,316.112915 170.337784,316.509735 
	C166.992218,316.184448 163.807465,315.462372 160.347778,314.505554 
z"/>
<path fill="#333333" opacity="1.000000" stroke="none" 
	d="
M111.491333,306.020081 
	C111.047791,302.544037 111.047791,299.065704 111.047791,295.295166 
	C120.300354,295.295166 129.371246,295.295166 138.987976,295.295166 
	C138.987976,299.881042 138.987976,304.488129 138.941315,309.562439 
	C132.699142,308.975311 126.512352,307.865082 120.304070,306.892059 
	C117.536644,306.458313 114.725937,306.300720 111.491333,306.020081 
z"/>
<path fill="#353232" opacity="1.000000" stroke="none" 
	d="
M209.433731,313.834106 
	C209.036133,307.690948 209.036133,301.583496 209.036133,295.241119 
	C218.404419,295.241119 227.447937,295.241119 237.004379,295.241119 
	C237.004379,299.250793 237.004379,303.182678 237.022217,307.584686 
	C227.970490,309.993103 218.900909,311.931427 209.433731,313.834106 
z"/>
<path fill="#353333" opacity="1.000000" stroke="none" 
	d="
M258.336121,307.016296 
	C257.999176,303.236328 258.035065,299.593567 258.084381,295.951019 
	C258.086243,295.812805 258.218628,295.676361 258.430817,295.269501 
	C267.314606,295.269501 276.344971,295.269501 285.992065,295.269501 
	C285.992065,300.606934 285.992065,306.002228 285.961365,311.899261 
	C276.857544,310.651855 267.784363,308.902710 258.336121,307.016296 
z"/>
<path fill="#FFFBFA" opacity="1.000000" stroke="none" 
	d="
M328.034149,336.582642 
	C314.657196,337.006195 301.366760,337.006195 287.619263,337.004120 
	C288.328583,336.045898 289.363678,334.549133 290.684296,334.228607 
	C295.962219,332.947449 301.319122,331.978546 306.665985,330.998871 
	C310.503540,330.295715 313.721985,328.983490 314.012451,324.427032 
	C314.317383,319.643921 311.435089,317.666626 306.901001,316.791138 
	C306.582794,316.640686 306.788666,316.281555 307.380920,316.135406 
	C309.967621,315.990631 311.965088,315.921448 313.955933,316.006683 
	C319.640442,316.250061 325.322205,316.556213 331.005066,316.837646 
	C323.170166,319.023834 321.965057,323.283508 326.882751,329.718903 
	C328.070557,331.273254 327.748413,333.981445 328.034149,336.582642 
z"/>
<path fill="#FFECEC" opacity="1.000000" stroke="none" 
	d="
M214.390411,336.647705 
	C210.159653,337.005432 206.045883,337.015564 201.471375,337.017883 
	C201.010666,335.576782 201.010666,334.143585 201.010666,331.519806 
	C205.850449,333.233978 210.178909,334.767059 214.390411,336.647705 
z"/>
<path fill="#333333" opacity="1.000000" stroke="none" 
	d="
M331.351776,316.795990 
	C325.322205,316.556213 319.640442,316.250061 313.955933,316.006683 
	C311.965088,315.921448 309.967621,315.990631 307.507507,315.971649 
	C307.041840,309.166229 307.041840,302.378418 307.041840,295.296631 
	C316.293335,295.296631 325.339905,295.296631 334.996613,295.296631 
	C334.996613,301.796967 334.996613,308.374817 334.983917,315.411255 
	C333.880310,316.164642 332.789398,316.459503 331.351776,316.795990 
z"/>
<path fill="#353532" opacity="1.000000" stroke="none" 
	d="
M356.453369,311.736542 
	C356.066467,306.301910 356.066467,300.873718 356.066467,295.225708 
	C365.418152,295.225708 374.449249,295.225708 384.005798,295.225708 
	C384.005798,298.559448 384.005798,301.817871 384.022278,305.539795 
	C374.972595,307.916534 365.906433,309.829773 356.453369,311.736542 
z"/>
<path fill="#FFFCEE" opacity="1.000000" stroke="none" 
	d="
M350.920410,336.628632 
	C346.647614,337.011932 342.434540,337.012421 337.784424,337.011902 
	C337.347443,335.586090 337.347443,334.161285 337.347443,331.515411 
	C342.257233,333.219055 346.618652,334.732452 350.920410,336.628632 
z"/>
<path fill="#333333" opacity="1.000000" stroke="none" 
	d="
M310.180756,245.999039 
	C308.798431,245.047638 307.164093,244.127853 307.122223,243.140457 
	C306.875946,237.338791 307.001190,231.521332 307.001190,225.355118 
	C316.177460,225.355118 325.232391,225.355118 334.644714,225.355118 
	C334.644714,231.845932 334.644714,238.571625 334.644714,245.999420 
	C326.801605,245.999420 318.733032,245.999420 310.180756,245.999039 
z"/>
<path fill="#333333" opacity="1.000000" stroke="none" 
	d="
M125.994110,225.000488 
	C130.460022,225.000488 134.428055,225.000488 138.696747,225.000488 
	C138.696747,231.953094 138.696747,238.675186 138.696747,245.700195 
	C129.709061,245.700195 120.658707,245.700195 111.302979,245.700195 
	C111.302979,239.046295 111.302979,232.324219 111.302979,225.000488 
	C115.987595,225.000488 120.741928,225.000488 125.994110,225.000488 
z"/>
<path fill="#333333" opacity="1.000000" stroke="none" 
	d="
M163.179169,225.000961 
	C171.610519,225.000580 179.556519,225.000580 187.748779,225.000580 
	C187.748779,232.063416 187.748779,238.784821 187.748779,245.754150 
	C178.595352,245.754150 169.544510,245.754150 160.003952,245.754150 
	C160.003952,239.557236 159.903610,233.454575 160.123230,227.363449 
	C160.152679,226.546249 161.797195,225.787277 163.179169,225.000961 
z"/>
<path fill="#333333" opacity="1.000000" stroke="none" 
	d="
M217.055099,245.999512 
	C214.253220,245.999512 211.942444,245.999512 209.318161,245.999512 
	C209.318161,239.076996 209.318161,232.353821 209.318161,225.313538 
	C218.263428,225.313538 227.315109,225.313538 236.684692,225.313538 
	C236.684692,231.928329 236.684692,238.651367 236.684692,245.999512 
	C230.377106,245.999512 223.961655,245.999512 217.055099,245.999512 
z"/>
<path fill="#333333" opacity="1.000000" stroke="none" 
	d="
M262.148499,245.999451 
	C259.046448,246.384506 257.793610,245.663361 257.929230,242.613205 
	C258.179657,236.981415 258.000824,231.330521 258.000824,225.344421 
	C267.199768,225.344421 276.254059,225.344421 285.655334,225.344421 
	C285.655334,231.867889 285.655334,238.593140 285.655334,245.999496 
	C278.110382,245.999496 270.371399,245.999496 262.148499,245.999451 
z"/>
<path fill="#333333" opacity="1.000000" stroke="none" 
	d="
M172.011963,280.999542 
	C167.879745,280.999542 164.243546,280.999542 160.304962,280.999542 
	C160.304962,274.050354 160.304962,267.328003 160.304962,260.301208 
	C169.288239,260.301208 178.338882,260.301208 187.695984,260.301208 
	C187.695984,266.951904 187.695984,273.673706 187.695984,280.999542 
	C182.679535,280.999542 177.593781,280.999542 172.011963,280.999542 
z"/>
<path fill="#333333" opacity="1.000000" stroke="none" 
	d="
M371.988037,225.000488 
	C376.120270,225.000488 379.756439,225.000488 383.695068,225.000488 
	C383.695068,231.949707 383.695068,238.672028 383.695068,245.698776 
	C374.711761,245.698776 365.661133,245.698776 356.304016,245.698776 
	C356.304016,239.048325 356.304016,232.326035 356.304016,225.000488 
	C361.320435,225.000488 366.406219,225.000488 371.988037,225.000488 
z"/>
<path fill="#333333" opacity="1.000000" stroke="none" 
	d="
M111.000519,269.026367 
	C111.000519,265.894287 111.000519,263.253326 111.000519,260.308716 
	C120.273659,260.308716 129.325073,260.308716 138.689529,260.308716 
	C138.689529,266.938568 138.689529,273.661560 138.689529,280.694031 
	C129.720901,280.694031 120.669502,280.694031 111.000519,280.694031 
	C111.000519,277.033722 111.000519,273.275635 111.000519,269.026367 
z"/>
<path fill="#333333" opacity="1.000000" stroke="none" 
	d="
M218.040497,280.999542 
	C214.904434,280.999542 212.262695,280.999542 209.312836,280.999542 
	C209.312836,274.066498 209.312836,267.343781 209.312836,260.308777 
	C218.272903,260.308777 227.323959,260.308777 236.688782,260.308777 
	C236.688782,266.936646 236.688782,273.659393 236.688782,280.999542 
	C230.700790,280.999542 224.617783,280.999542 218.040497,280.999542 
z"/>
<path fill="#333333" opacity="1.000000" stroke="none" 
	d="
M258.000458,270.009583 
	C258.000458,266.546448 258.000458,263.575317 258.000458,260.303406 
	C267.284363,260.303406 276.335571,260.303406 285.694641,260.303406 
	C285.694641,266.949249 285.694641,273.671997 285.694641,280.698975 
	C276.710754,280.698975 267.659546,280.698975 258.000458,280.698975 
	C258.000458,277.357544 258.000458,273.929565 258.000458,270.009583 
z"/>
<path fill="#333333" opacity="1.000000" stroke="none" 
	d="
M321.994141,260.000458 
	C326.460022,260.000458 330.428040,260.000458 334.696777,260.000458 
	C334.696777,266.953094 334.696777,273.675171 334.696777,280.700195 
	C325.709045,280.700195 316.658691,280.700195 307.302917,280.700195 
	C307.302917,274.045990 307.302917,267.324463 307.302917,260.000458 
	C311.987610,260.000458 316.741943,260.000458 321.994141,260.000458 
z"/>
<path fill="#333333" opacity="1.000000" stroke="none" 
	d="
M383.953247,279.751495 
	C374.750122,280.231232 365.584869,280.231232 356.206909,280.231232 
	C356.206909,273.966827 356.206909,267.361053 356.206909,260.377167 
	C365.131653,260.377167 374.188232,260.377167 383.991089,260.377167 
	C383.991089,266.470123 383.991089,272.870941 383.953247,279.751495 
z"/>
</svg>